#!OML:ASF E:\Style4\Style4.ASF
:FULLY-SPECIFIED
:DEGREES
2078
root 0.293727 17.2469 -1.68275 3.6536 3.93667 6.85394
lowerback 14.2497 4.7101 3.97164
upperback 8.92607 6.6593 2.35687
thorax 1.65688 3.44656 -0.568704
lowerneck 3.35254 -3.83233 -2.78189
upperneck 0.268375 -5.27481 -8.03325
head -0.636935 -2.55084 -1.95309
rclavicle 1.24042e-013 -6.36111e-015
rhumerus 29.7424 -7.45249 -34.2899
rradius 76.998
rwrist -7.35964
rhand 0.489439 11.8731
rfingers 7.12502
rthumb 26.0591 -16.3595
lclavicle 1.24042e-013 -6.36111e-015
lhumerus 28.6525 22.4511 13.1076
lradius 92.2172
lwrist 18.9359
lhand 5.18103 23.4551
lfingers 7.12502
lthumb 30.5426 50.9427
rfemur -28.9298 -8.90294 10.9721
rtibia 48.9121
rfoot -20.6176 -15.9125
rtoes -13.8456
lfemur -26.2316 0.118669 -27.308
ltibia 41.0182
lfoot -18.9282 8.75801
ltoes -11.5962
2079
root 0.322292 17.2817 -1.67589 3.72484 3.38327 6.75312
lowerback 14.199 4.56745 3.70658
upperback 8.90794 6.43788 2.36221
thorax 1.62326 3.32291 -0.391183
lowerneck 3.16131 -3.50059 -3.07034
upperneck 0.296124 -4.82755 -8.00191
head -0.573905 -2.33394 -1.9052
rclavicle -6.2816e-014 1.59028e-015
rhumerus 29.7944 -7.09991 -34.1868
rradius 77.2158
rwrist -7.26728
rhand 0.318136 11.8827
rfingers 7.12502
rthumb 25.8951 -16.374
lclavicle -6.2816e-014 1.59028e-015
lhumerus 28.6016 22.5061 13.0769
lradius 91.6433
lwrist 18.7009
lhand 5.01507 23.4806
lfingers 7.12502
lthumb 30.3843 50.9976
rfemur -28.7702 -8.48546 11.0035
rtibia 48.2131
rfoot -20.0893 -16.0111
rtoes -15.1889
lfemur -25.951 0.427269 -27.2999
ltibia 40.4428
lfoot -18.7581 8.99634
ltoes -11.8289
2080
root 0.35315 17.313 -1.67019 3.80216 2.83329 6.58904
lowerback 14.0987 4.39066 3.54799
upperback 8.95443 6.17915 2.37927
thorax 1.69698 3.18682 -0.246251
lowerneck 2.79653 -3.17097 -3.47728
upperneck 0.355617 -4.37158 -7.91462
head -0.468612 -2.11849 -1.82124
rclavicle -4.77083e-015 -6.36111e-015
rhumerus 29.9777 -6.73294 -34.0581
rradius 77.3727
rwrist -6.93318
rhand -0.0836796 11.8085
rfingers 7.12502
rthumb 25.5102 -16.5037
lclavicle -4.77083e-015 -6.36111e-015
lhumerus 28.5164 22.6942 13.0655
lradius 90.9566
lwrist 18.3615
lhand 4.81805 23.3215
lfingers 7.12502
lthumb 30.1964 50.8731
rfemur -28.6107 -8.14373 11.111
rtibia 47.5202
rfoot -19.6961 -15.9086
rtoes -15.5373
lfemur -25.6957 0.749567 -27.2297
ltibia 39.8861
lfoot -18.5124 9.16094
ltoes -11.6362
2081
root 0.381173 17.342 -1.66838 3.90802 2.30201 6.42305
lowerback 14.0327 4.28307 3.39447
upperback 8.90588 6.01693 2.34723
thorax 1.66152 3.09792 -0.174741
lowerneck 2.62018 -2.85889 -3.43899
upperneck 0.420943 -3.93793 -8.02184
head -0.411407 -1.9085 -1.87143
rclavicle 7.15625e-015 4.29375e-014
rhumerus 29.8624 -6.48883 -33.9382
rradius 77.5888
rwrist -7.03866
rhand 0.343644 11.9333
rfingers 7.12502
rthumb 25.9195 -16.3198
lclavicle 7.15625e-015 4.29375e-014
lhumerus 28.6098 22.7253 13.1024
lradius 90.3544
lwrist 18.0749
lhand 4.80656 23.2774
lfingers 7.12502
lthumb 30.1854 50.831
rfemur -28.4998 -7.77141 11.221
rtibia 46.8345
rfoot -19.3315 -15.6978
rtoes -15.3305
lfemur -25.4936 1.00377 -27.1388
ltibia 39.3409
lfoot -18.4432 9.36021
ltoes -11.3497
2082
root 0.407123 17.3727 -1.66337 3.98434 1.79091 6.28392
lowerback 14.0093 4.27052 3.28051
upperback 8.76735 5.98884 2.23326
thorax 1.52528 3.0779 -0.233503
lowerneck 2.76056 -2.65637 -3.11786
upperneck 0.44094 -3.66629 -8.07024
head -0.429909 -1.77066 -1.94413
rclavicle -7.95139e-016 -1.11319e-014
rhumerus 29.3456 -6.42426 -33.8348
rradius 77.8408
rwrist -7.32692
rhand 0.645843 12.0852
rfingers 7.12502
rthumb 26.2088 -16.1252
lclavicle -7.95139e-016 -1.11319e-014
lhumerus 29.0471 22.523 13.251
lradius 89.8258
lwrist 17.8061
lhand 4.88107 23.3496
lfingers 7.12502
lthumb 30.2565 50.8901
rfemur -28.3337 -7.36869 11.2958
rtibia 46.1524
rfoot -18.9677 -15.5396
rtoes -15.4201
lfemur -25.249 1.23271 -27.0756
ltibia 38.7958
lfoot -18.3629 9.67673
ltoes -11.5882
2083
root 0.432279 17.4033 -1.65645 4.09065 1.26826 6.17978
lowerback 13.9836 4.2973 3.20623
upperback 8.57395 6.018 2.06177
thorax 1.34451 3.08851 -0.382745
lowerneck 3.06322 -2.54048 -2.85763
upperneck 0.444781 -3.52038 -7.93482
head -0.478178 -1.6927 -1.94356
rclavicle 1.59028e-015 -3.18055e-015
rhumerus 28.6686 -6.4241 -33.773
rradius 78.0707
rwrist -7.55436
rhand 0.232149 12.0749
rfingers 7.12502
rthumb 25.8127 -16.1937
lclavicle 1.59028e-015 -3.18055e-015
lhumerus 29.6177 22.2241 13.425
lradius 89.3236
lwrist 17.6159
lhand 4.98425 23.4982
lfingers 7.12502
lthumb 30.355 51.0206
rfemur -28.2008 -6.98327 11.3394
rtibia 45.4887
rfoot -18.591 -15.4634
rtoes -16.1244
lfemur -25.0188 1.48372 -27.0471
ltibia 38.2497
lfoot -18.2346 9.79854
ltoes -10.8117
2084
root 0.455821 17.4362 -1.65116 4.2058 0.835312 6.05155
lowerback 13.931 4.22164 3.07041
upperback 8.44815 5.90314 1.97243
thorax 1.23009 3.02447 -0.390446
lowerneck 3.22008 -2.3332 -2.71924
upperneck 0.370658 -3.2538 -7.91732
head -0.522795 -1.5541 -1.96394
rclavicle -4.85035e-014 -2.54444e-014
rhumerus 28.3348 -6.35131 -33.6577
rradius 78.2839
rwrist -7.86935
rhand 0.100575 12.1112
rfingers 7.12502
rthumb 25.6867 -16.1757
lclavicle -4.85035e-014 -2.54444e-014
lhumerus 29.8965 22.0977 13.4773
lradius 88.7768
lwrist 17.4775
lhand 5.06075 23.5287
lfingers 7.12502
lthumb 30.4279 51.0376
rfemur -28.0656 -6.66781 11.4117
rtibia 44.8462
rfoot -18.4126 -15.1474
rtoes -14.9123
lfemur -24.8163 1.71963 -26.993
ltibia 37.7229
lfoot -18.0843 10.0174
ltoes -10.8092
2085
root 0.477911 17.4648 -1.64406 4.37625 0.351135 5.90072
lowerback 13.7599 4.07879 2.75444
upperback 8.37471 5.67485 1.99429
thorax 1.2009 2.89614 -0.158832
lowerneck 3.12236 -1.98783 -2.8492
upperneck 0.423027 -2.7874 -7.94402
head -0.47477 -1.32587 -1.95842
rclavicle -1.98785e-014 -7.95139e-015
rhumerus 28.4122 -6.07785 -33.4392
rradius 78.5097
rwrist -8.0607
rhand 0.0228041 11.9291
rfingers 7.12502
rthumb 25.6122 -16.3685
lclavicle -1.98785e-014 -7.95139e-015
lhumerus 29.7284 22.1286 13.3587
lradius 88.1848
lwrist 17.2564
lhand 4.94238 23.501
lfingers 7.12502
lthumb 30.315 51.0308
rfemur -28.0276 -6.31914 11.5179
rtibia 44.2562
rfoot -18.2709 -14.7996
rtoes -13.4595
lfemur -24.6873 1.9253 -26.9035
ltibia 37.2177
lfoot -18.0929 10.2638
ltoes -10.8825
2086
root 0.497944 17.4884 -1.63938 4.55706 -0.0797487 5.78048
lowerback 13.6198 3.94466 2.45257
upperback 8.28425 5.46192 1.97223
thorax 1.14658 2.77713 0.0147387
lowerneck 3.02507 -1.65721 -2.89507
upperneck 0.491181 -2.3364 -7.94646
head -0.423669 -1.10619 -1.95874
rclavicle -3.89618e-014 6.36111e-015
rhumerus 28.397 -5.9161 -33.2995
rradius 78.6918
rwrist -8.11232
rhand -0.0218999 11.8445
rfingers 7.12502
rthumb 25.5694 -16.4592
lclavicle -3.89618e-014 6.36111e-015
lhumerus 29.6346 22.1527 13.2809
lradius 87.6585
lwrist 17.0072
lhand 4.69659 23.3701
lfingers 7.12502
lthumb 30.0805 50.9427
rfemur -28.0122 -5.9706 11.5996
rtibia 43.6733
rfoot -17.9284 -14.7303
rtoes -13.359
lfemur -24.6001 2.10614 -26.8461
ltibia 36.739
lfoot -18.0263 10.4926
ltoes -10.8544
2087
root 0.517203 17.5107 -1.63916 4.6164 -0.393079 5.75569
lowerback 13.6375 3.87401 2.24045
upperback 8.18833 5.34715 1.83687
thorax 1.02624 2.7131 -0.00123515
lowerneck 3.10444 -1.4325 -2.6714
upperneck 0.499899 -2.03254 -7.84334
head -0.427297 -0.9545 -1.96798
rclavicle -4.77083e-014 2.06736e-014
rhumerus 27.9919 -6.00316 -33.1748
rradius 78.8499
rwrist -8.1968
rhand 0.053588 12.0512
rfingers 7.12502
rthumb 25.6417 -16.2422
lclavicle -4.77083e-014 2.06736e-014
lhumerus 30.0188 22.0192 13.3769
lradius 87.1213
lwrist 16.771
lhand 4.49798 23.212
lfingers 7.12502
lthumb 29.891 50.819
rfemur -27.8559 -5.73744 11.5699
rtibia 43.0963
rfoot -17.5245 -14.7541
rtoes -13.7828
lfemur -24.3889 2.17222 -26.885
ltibia 36.2877
lfoot -17.9286 10.7022
ltoes -10.8016
2088
root 0.541279 17.5383 -1.62961 4.6149 -0.815639 5.62072
lowerback 13.6034 3.83511 2.19005
upperback 8.14106 5.28832 1.709
thorax 1.00089 2.68363 -0.0983742
lowerneck 3.19475 -1.23374 -2.44944
upperneck 0.495368 -1.76455 -7.73422
head -0.437513 -0.820009 -1.97465
rclavicle 7.95139e-016 -1.11319e-014
rhumerus 27.5132 -6.09393 -32.9609
rradius 79.0962
rwrist -8.32028
rhand -0.0196811 12.0304
rfingers 7.12502
rthumb 25.5715 -16.273
lclavicle 7.95139e-016 -1.11319e-014
lhumerus 30.4547 21.8586 13.4756
lradius 86.5937
lwrist 16.4302
lhand 4.34668 23.2594
lfingers 7.12502
lthumb 29.7466 50.8923
rfemur -27.596 -5.42993 11.6281
rtibia 42.4901
rfoot -17.2345 -14.6321
rtoes -13.7373
lfemur -24.0827 2.27445 -26.8209
ltibia 35.8629
lfoot -17.9044 11.0284
ltoes -11.0384
